HIERARCHY
ROOT RootJoint
{
    OFFSET   0.000000   0.000000   0.000000
    CHANNELS 6 Xposition Yposition Zposition Xrotation Yrotation Zrotation
    JOINT pelvis_lowerback
    {
        OFFSET   0.000000   0.093605   0.000000
        CHANNELS 3 Xrotation Yrotation Zrotation
        JOINT lowerback_torso
        {
            OFFSET   0.000000   0.100000   0.000000
            CHANNELS 3 Xrotation Yrotation Zrotation
            JOINT torso_head
            {
                OFFSET   0.000000   0.282350   0.000000
                CHANNELS 3 Xrotation Yrotation Zrotation
                End Site
                {
                    OFFSET   0.000000   0.192650   0.000000
                }
            }
            JOINT rTorso_Clavicle
            {
                OFFSET  -0.001000   0.157500   0.000000
                CHANNELS 3 Xrotation Yrotation Zrotation
                JOINT rShoulder
                {
                    OFFSET  -0.117647   0.000000   0.000000
                    CHANNELS 3 Xrotation Yrotation Zrotation
                    JOINT rElbow
                    {
                        OFFSET  -0.245000   0.000000   0.000000
                        CHANNELS 3 Xrotation Yrotation Zrotation
                        JOINT rWrist
                        {
                            OFFSET  -0.240000   0.000000   0.000000
                            CHANNELS 3 Xrotation Yrotation Zrotation
                            End Site
                            {
                                OFFSET  -0.116353  -0.002500   0.000000
                            }
                        }
                    }
                }
            }
            JOINT lTorso_Clavicle
            {
                OFFSET   0.001000   0.157500   0.000000
                CHANNELS 3 Xrotation Yrotation Zrotation
                JOINT lShoulder
                {
                    OFFSET   0.117647   0.000000   0.000000
                    CHANNELS 3 Xrotation Yrotation Zrotation
                    JOINT lElbow
                    {
                        OFFSET   0.245000   0.000000   0.000000
                        CHANNELS 3 Xrotation Yrotation Zrotation
                        JOINT lWrist
                        {
                            OFFSET   0.240000   0.000000   0.000000
                            CHANNELS 3 Xrotation Yrotation Zrotation
                            End Site
                            {
                                OFFSET   0.116353  -0.002500   0.000000
                            }
                        }
                    }
                }
            }
        }
    }
    JOINT rHip
    {
        OFFSET  -0.100000  -0.051395   0.000000
        CHANNELS 3 Xrotation Yrotation Zrotation
        JOINT rKnee
        {
            OFFSET   0.000000  -0.410000   0.000000
            CHANNELS 3 Xrotation Yrotation Zrotation
            JOINT rAnkle
            {
                OFFSET   0.000000  -0.390000   0.000000
                CHANNELS 3 Xrotation Yrotation Zrotation
                JOINT rToeJoint
                {
                    OFFSET   0.000000  -0.050000   0.130000
                    CHANNELS 3 Xrotation Yrotation Zrotation
                    End Site
                    {
                        OFFSET  -0.010000   0.002000   0.060000
                    }
                }
            }
        }
    }
    JOINT lHip
    {
        OFFSET   0.100000  -0.051395   0.000000
        CHANNELS 3 Xrotation Yrotation Zrotation
        JOINT lKnee
        {
            OFFSET   0.000000  -0.410000   0.000000
            CHANNELS 3 Xrotation Yrotation Zrotation
            JOINT lAnkle
            {
                OFFSET   0.000000  -0.390000   0.000000
                CHANNELS 3 Xrotation Yrotation Zrotation
                JOINT lToeJoint
                {
                    OFFSET   0.000000  -0.050000   0.130000
                    CHANNELS 3 Xrotation Yrotation Zrotation
                    End Site
                    {
                        OFFSET   0.010000   0.002000   0.060000
                    }
                }
            }
        }
    }
}
MOTION
Frames: 7
Frame Time:   0.008333
 -2.381800   0.909247   4.696417  -4.944234   4.317079   0.231477   9.522520   4.376460   0.253020   2.522117   0.267776   1.037480  -2.552508   0.548860   1.446800   1.365254   3.522630  12.736931   7.164651  13.821595  37.873874   0.000417  18.761455  -0.000514  11.224187   2.386032   1.605662   2.388988   0.447913 -13.536396  13.386876  -8.195560 -43.247912  -0.002074 -13.552284   0.000238   9.574558  -2.276597  -3.908179  13.786761   1.998230   4.409833   7.380320  -0.000026  -0.000239  -9.942896   4.586690  -5.040110  -9.117838  -0.000002   0.000006 -22.012785  -5.730608   1.380917  19.621948   0.000129   0.003966  -7.636926   3.616041  -1.412459  -0.455743   0.000086  -0.000086
 -2.381196   0.908246   4.701090  -4.858985   4.299091   0.246474   9.432701   4.422758   0.220007   2.579544   0.288048   1.048413  -2.560730   0.599232   1.449463   1.362033   3.571097  12.804919   7.136321  13.925442  37.914605   0.000396  18.806719  -0.000470  11.222329   2.387044   1.604717   2.368638   0.514963 -13.600907  13.462753  -8.154440 -43.324408  -0.002121 -13.235565   0.000338   9.578349  -2.223691  -3.896089  14.011993   1.947796   4.362551   7.453090  -0.000021  -0.000246 -10.316670   4.671983  -5.024881  -9.123483  -0.000002   0.000004 -22.129475  -5.743175   1.352919  18.218698   0.000024   0.003649  -7.440931   3.481817  -1.460583  -0.514136   0.000002   0.000035
 -2.380557   0.907199   4.705840  -4.769399   4.283841   0.257073   9.339375   4.463345   0.191273   2.630824   0.305647   1.058288  -2.568994   0.647180   1.450679   1.363014   3.613442  12.874623   7.111824  14.020950  37.957695   0.000373  18.847989  -0.000425  11.220614   2.384998   1.614023   2.351813   0.580011 -13.662826  13.535255  -8.113610 -43.395959  -0.002113 -12.937191   0.000398   9.581878  -2.152721  -3.880418  14.238677   1.900293   4.318218   7.525251  -0.000015  -0.000249 -10.693205   4.752146  -5.007951  -9.134054  -0.000001   0.000004 -22.238809  -5.757156   1.335387  16.897456   0.000003   0.003317  -7.258101   3.355310  -1.505134  -0.563965  -0.000049   0.000110
 -2.379882   0.906126   4.710657  -4.674690   4.270237   0.262371   9.245949   4.499996   0.166533   2.675485   0.320958   1.068922  -2.577823   0.691907   1.451553   1.366683   3.650978  12.944044   7.090408  14.108818  38.000962   0.000350  18.885726  -0.000382  11.218930   2.380417   1.629571   2.337004   0.641879 -13.722574  13.603454  -8.074954 -43.463648  -0.002062 -12.658259   0.000424   9.585470  -2.079551  -3.865358  14.464397   1.855654   4.277436   7.596521  -0.000010  -0.000249 -11.060605   4.826744  -4.990045  -9.164870  -0.000001   0.000003 -22.342998  -5.771439   1.327267  15.663988   0.000023   0.002984  -7.087713   3.237120  -1.546055  -0.610276  -0.000080   0.000160
 -2.379168   0.905043   4.715538  -4.573457   4.256959   0.263618   9.153114   4.533297   0.144582   2.714009   0.334297   1.079867  -2.586938   0.733631   1.452343   1.372035   3.684690  13.011962   7.071403  14.189983  38.043549   0.000326  18.920409  -0.000341  11.217300   2.374129   1.649067   2.323279   0.700092 -13.780005  13.667020  -8.038978 -43.527702  -0.001982 -12.397983   0.000420   9.588849  -2.009290  -3.851525  14.686756   1.813617   4.238297   7.667248  -0.000004  -0.000248 -11.413423   4.896134  -4.971233  -9.223144  -0.000001   0.000004 -22.441676  -5.785591   1.325907  14.514248   0.000056   0.002677  -6.928825   3.126737  -1.583674  -0.653333  -0.000097   0.000190
 -2.378412   0.903957   4.720479  -4.464337   4.243225   0.261804   9.061135   4.563471   0.124623   2.746723   0.345784   1.090556  -2.596165   0.772559   1.453071   1.378403   3.715206  13.077470   7.054348  14.265153  38.084850   0.000303  18.952427  -0.000304  11.215725   2.366905   1.670959   2.310117   0.754486 -13.834855  13.725948  -8.005814 -43.588171  -0.001881 -12.155343   0.000394   9.591916  -1.943624  -3.838728  14.903875   1.773933   4.199333   7.737533   0.000002  -0.000246 -11.748789   4.960615  -4.951508  -9.312532  -0.000001   0.000007 -22.534383  -5.799401   1.329304  13.443140   0.000086   0.002407  -6.780632   3.023644  -1.618290  -0.693393  -0.000105   0.000207
 -2.377615   0.902871   4.725479  -4.346149   4.228628   0.257552   8.970157   4.590639   0.106141   2.773921   0.355460   1.100607  -2.605406   0.808876   1.453733   1.385343   3.742942  13.139896   7.038927  14.334860  38.124401   0.000281  18.982070  -0.000270  11.214200   2.359223   1.694043   2.297205   0.805050 -13.886876  13.780372  -7.975427 -43.645059  -0.001768 -11.929276   0.000350   9.594648  -1.883102  -3.826597  15.114367   1.736370   4.159611   7.807273   0.000008  -0.000244 -12.065335   5.020454  -4.930856  -9.434581  -0.000001   0.000012 -22.620745  -5.812745   1.336098  12.445641   0.000106   0.002175  -6.642401   2.927356  -1.650173  -0.730682  -0.000107   0.000214
